# xmcd
#
# Track frame offsets:
#	150
#	25153
#	40889
#	60570
#	74370
#	88387
#	103507
#	124563
#	140082
#	155353
#	174235
#	185074
#	199881
#
# Disc length: 2923 seconds
#
# Revision: 1
# Processed by: cddbd v1.5.2PL0 Copyright (c) Steve Scherf et al.
# Submitted via: EasyCDDAExtractor 11.5.3.1
#
DISCID=b70b690d
DTITLE=Slawa Przybylska - U brzegow Candle Rock
DYEAR=2001
DGENRE=Pop
TTITLE0=U brzegow Candle Rock
TTITLE1=Pisz do mnie listy
TTITLE2=Tulic nie tulic
TTITLE3=Ballada pieknej platnerki
TTITLE4=Przeciaga kawaleria
TTITLE5=I...Inni
TTITLE6=Msza milosna
TTITLE7=Jak zostane wielka pania
TTITLE8=Czarne maki
TTITLE9=Ballada o nieswietej dziewczynie
TTITLE10=Smutno samolotom na ziemi (bonus)
TTITLE11=Jeszcze nie wieczor (bonus)
TTITLE12=Krolowa Barbara (bonus)
EXTD=YEAR: 2001
EXTT0=
EXTT1=
EXTT2=
EXTT3=
EXTT4=
EXTT5=
EXTT6=
EXTT7=
EXTT8=
EXTT9=
EXTT10=
EXTT11=
EXTT12=
PLAYORDER=
